<svg xmlns="http://www.w3.org/2000/svg" viewBox="0 0 100 100" width="100" height="100">
  <!-- Generated by gen-hoard.js. A heaped pile of coins + gems (hoard-06 style)
       with a radial corona of light rays: even angular spacing + shared outer
       radius from one hidden origin above the base center; each ray's inner end
       is computed per-ray so it begins just beyond the pile it would cross. -->
  <title>Hoard — heaped pile with ray corona</title>

  <g stroke="#ffe9a0" stroke-linecap="round" stroke-width="1.6" opacity="0.5">
    <!-- the corona slowly pulses in opacity (~3s cycle) — a glinting shimmer.
         SMIL so it runs when the SVG is loaded as an <img>. -->
    <animate attributeName="opacity" dur="3s" repeatCount="indefinite"
      values="0.3;0.62;0.3" calcMode="spline" keyTimes="0;0.5;1"
      keySplines="0.45 0 0.55 1;0.45 0 0.55 1"/>
    <line x1="25.57" y1="88.89" x2="3.02" y2="97.10"/>
    <line x1="9.52" y1="81.18" x2="0.02" y2="81.45"/>
    <line x1="18.87" y1="70.68" x2="2.10" y2="65.66"/>
    <line x1="24.61" y1="62.22" x2="9.04" y2="51.32"/>
    <line x1="30.59" y1="53.93" x2="20.14" y2="39.89"/>
    <line x1="39.15" y1="47.25" x2="34.27" y2="32.54"/>
    <line x1="50.00" y1="43.00" x2="50.00" y2="30.00"/>
    <line x1="61.17" y1="46.30" x2="65.73" y2="32.54"/>
    <line x1="69.11" y1="54.33" x2="79.86" y2="39.89"/>
    <line x1="75.80" y1="61.93" x2="90.96" y2="51.32"/>
    <line x1="84.49" y1="69.68" x2="97.90" y2="65.66"/>
    <line x1="92.98" y1="81.25" x2="99.98" y2="81.45"/>
    <line x1="77.72" y1="90.09" x2="96.98" y2="97.10"/>
  </g>

  <ellipse cx="50" cy="86" rx="42" ry="7" fill="#000" opacity="0.28"/>

  <g fill="#f0c040" stroke="#a8822e" stroke-width="0.7">
    <ellipse cx="18.9" cy="83.7" rx="6.0" ry="2.8"/>
    <ellipse cx="21.4" cy="84.3" rx="6.2" ry="3.1"/>
    <ellipse cx="27.1" cy="84.1" rx="5.0" ry="2.4"/>
    <ellipse cx="33.9" cy="85.1" rx="5.9" ry="2.7"/>
    <ellipse cx="39.2" cy="83.7" rx="5.6" ry="2.8"/>
    <ellipse cx="44.5" cy="84.6" rx="5.5" ry="2.7"/>
    <ellipse cx="50.0" cy="82.8" rx="6.0" ry="3.1"/>
    <ellipse cx="56.2" cy="85.4" rx="5.6" ry="2.8"/>
    <ellipse cx="59.9" cy="85.5" rx="5.4" ry="2.7"/>
    <ellipse cx="68.5" cy="83.0" rx="5.5" ry="2.7"/>
    <ellipse cx="73.1" cy="85.2" rx="5.8" ry="2.6"/>
    <ellipse cx="75.3" cy="84.1" rx="5.9" ry="2.9"/>
    <ellipse cx="84.8" cy="84.1" rx="6.0" ry="2.9"/>
    <ellipse cx="19.9" cy="80.4" rx="5.8" ry="3.0"/>
    <ellipse cx="27.8" cy="78.6" rx="5.3" ry="2.7"/>
    <ellipse cx="32.7" cy="78.3" rx="5.4" ry="2.6"/>
    <ellipse cx="36.2" cy="78.7" rx="5.7" ry="2.6"/>
    <ellipse cx="41.2" cy="79.2" rx="6.1" ry="3.1"/>
    <ellipse cx="49.3" cy="80.6" rx="6.0" ry="2.9"/>
    <ellipse cx="51.0" cy="80.9" rx="6.1" ry="3.1"/>
    <ellipse cx="59.9" cy="78.8" rx="5.1" ry="2.4"/>
    <ellipse cx="63.5" cy="78.5" rx="5.7" ry="2.8"/>
    <ellipse cx="68.9" cy="80.9" rx="6.1" ry="2.8"/>
    <ellipse cx="74.1" cy="78.4" rx="6.1" ry="2.8"/>
    <ellipse cx="80.4" cy="78.3" rx="5.0" ry="2.3"/>
    <ellipse cx="25.5" cy="75.3" rx="6.0" ry="2.9"/>
    <ellipse cx="30.6" cy="75.9" rx="5.4" ry="2.6"/>
    <ellipse cx="34.1" cy="74.9" rx="6.0" ry="2.8"/>
    <ellipse cx="38.3" cy="75.9" rx="5.2" ry="2.7"/>
    <ellipse cx="42.6" cy="74.1" rx="5.3" ry="2.7"/>
    <ellipse cx="52.1" cy="76.0" rx="5.9" ry="2.7"/>
    <ellipse cx="54.7" cy="75.9" rx="5.4" ry="2.6"/>
    <ellipse cx="60.8" cy="75.6" rx="5.6" ry="2.6"/>
    <ellipse cx="65.6" cy="75.3" rx="5.2" ry="2.4"/>
    <ellipse cx="71.7" cy="75.4" rx="6.0" ry="3.0"/>
    <ellipse cx="77.3" cy="74.3" rx="6.0" ry="3.1"/>
    <ellipse cx="31.2" cy="71.0" rx="6.0" ry="3.0"/>
    <ellipse cx="35.2" cy="71.1" rx="5.7" ry="2.9"/>
    <ellipse cx="41.4" cy="69.4" rx="5.3" ry="2.6"/>
    <ellipse cx="43.1" cy="68.5" rx="5.3" ry="2.6"/>
    <ellipse cx="50.9" cy="68.9" rx="5.5" ry="2.6"/>
    <ellipse cx="56.8" cy="69.4" rx="5.4" ry="2.8"/>
    <ellipse cx="60.0" cy="69.2" rx="5.4" ry="2.8"/>
    <ellipse cx="65.5" cy="71.2" rx="5.2" ry="2.7"/>
    <ellipse cx="69.9" cy="70.9" rx="5.1" ry="2.5"/>
    <ellipse cx="33.0" cy="66.3" rx="5.1" ry="2.6"/>
    <ellipse cx="38.7" cy="64.1" rx="5.1" ry="2.6"/>
    <ellipse cx="42.3" cy="65.5" rx="5.8" ry="2.8"/>
    <ellipse cx="48.2" cy="64.9" rx="6.1" ry="3.0"/>
    <ellipse cx="57.4" cy="65.2" rx="5.9" ry="2.8"/>
    <ellipse cx="59.6" cy="65.1" rx="5.9" ry="3.0"/>
    <ellipse cx="66.5" cy="64.2" rx="5.3" ry="2.7"/>
    <ellipse cx="38.9" cy="59.0" rx="6.1" ry="2.9"/>
    <ellipse cx="43.3" cy="61.2" rx="5.5" ry="2.6"/>
    <ellipse cx="45.4" cy="61.1" rx="5.4" ry="2.5"/>
    <ellipse cx="53.4" cy="59.4" rx="5.3" ry="2.7"/>
    <ellipse cx="59.9" cy="58.8" rx="5.0" ry="2.6"/>
    <ellipse cx="64.6" cy="60.5" rx="5.7" ry="2.6"/>
    <ellipse cx="40.2" cy="56.4" rx="5.5" ry="2.6"/>
    <ellipse cx="49.5" cy="54.7" rx="5.3" ry="2.7"/>
    <ellipse cx="51.7" cy="53.8" rx="6.0" ry="3.0"/>
    <ellipse cx="58.7" cy="55.7" rx="5.7" ry="2.9"/>
    <ellipse cx="47.4" cy="51.1" rx="6.0" ry="2.9"/>
    <ellipse cx="49.4" cy="50.4" rx="5.3" ry="2.4"/>
    <ellipse cx="54.0" cy="51.5" rx="5.9" ry="2.7"/>
  </g>

  <polygon points="34.0,76.6 37.2,79.3 36.0,82.7 32.0,82.7 30.8,79.3" fill="#3a9ad0" stroke="#2a6a9a" stroke-width="0.6"/>
  <polygon points="66.0,74.6 69.2,77.3 68.0,80.7 64.0,80.7 62.8,77.3" fill="#c0392b" stroke="#8a2418" stroke-width="0.6"/>
  <polygon points="44.0,68.6 47.2,71.3 46.0,74.7 42.0,74.7 40.8,71.3" fill="#2a8a4a" stroke="#1a5a30" stroke-width="0.6"/>
  <polygon points="58.0,62.6 61.2,65.3 60.0,68.7 56.0,68.7 54.8,65.3" fill="#3a9ad0" stroke="#2a6a9a" stroke-width="0.6"/>
  <polygon points="40.0,56.6 43.2,59.3 42.0,62.7 38.0,62.7 36.8,59.3" fill="#c0392b" stroke="#8a2418" stroke-width="0.6"/>
  <polygon points="60.0,54.6 63.2,57.3 62.0,60.7 58.0,60.7 56.8,57.3" fill="#8a4ac0" stroke="#5a2a8a" stroke-width="0.6"/>
  <polygon points="50.0,48.6 53.2,51.3 52.0,54.7 48.0,54.7 46.8,51.3" fill="#2a8a4a" stroke="#1a5a30" stroke-width="0.6"/>

  <g fill="#fff6d8"><circle cx="34.9" cy="84.6" r="0.9"/><circle cx="26.0" cy="77.9" r="0.7"/><circle cx="35.8" cy="77.4" r="0.9"/><circle cx="54.9" cy="74.7" r="0.8"/><circle cx="64.1" cy="73.9" r="0.9"/><circle cx="78.3" cy="73.3" r="0.7"/><circle cx="33.0" cy="79.0" r="0.9"/><circle cx="65.0" cy="77.0" r="0.9"/><circle cx="43.0" cy="71.0" r="0.9"/><circle cx="57.0" cy="65.0" r="0.9"/><circle cx="39.0" cy="59.0" r="0.8"/><circle cx="59.0" cy="57.0" r="0.8"/><circle cx="49.0" cy="51.0" r="0.7"/></g>
</svg>
