<svg xmlns="http://www.w3.org/2000/svg" viewBox="0 0 100 100" width="100" height="100">
  <!-- 06: the opposite proportion — squat, wide, toad-like gumdrop. Huge face,
       very long feet splayed out, stubby arms. Reads big and heavy. -->
  <title>Wumpus 06 — squat & wide</title>
  <ellipse cx="50" cy="93" rx="27" ry="4" fill="#000" opacity="0.35"/>

  <rect x="38" y="74" width="6" height="6" fill="#3f4a29"/>
  <rect x="56" y="74" width="6" height="6" fill="#3f4a29"/>
  <ellipse cx="34" cy="85" rx="14" ry="5" fill="#4a5730"/>
  <ellipse cx="66" cy="85" rx="14" ry="5" fill="#4a5730"/>

  <path d="M20 52 Q9 50 5 54 Q10 57 21 55 Z" fill="#5a6b3a"/>
  <path d="M80 52 Q91 50 95 54 Q90 57 79 55 Z" fill="#5a6b3a"/>

  <!-- wide low gumdrop -->
  <path d="M16 76 Q14 28 50 26 Q86 28 84 76 Z" fill="#5a6b3a"/>
  <path d="M23 74 Q22 36 50 34 Q78 36 77 74 Z" fill="#66783f"/>

  <path d="M30 44 L44 47" fill="none" stroke="#2f3a1c" stroke-width="2.6" stroke-linecap="round"/>
  <path d="M70 44 L56 47" fill="none" stroke="#2f3a1c" stroke-width="2.6" stroke-linecap="round"/>

  <ellipse cx="38" cy="52" rx="8" ry="8.5" fill="#f4ecd0"/>
  <ellipse cx="62" cy="52" rx="8" ry="8.5" fill="#f4ecd0"/>
  <circle cx="39" cy="53" r="3.6" fill="#c9a84c"/>
  <circle cx="61" cy="53" r="3.6" fill="#c9a84c"/>
  <circle cx="39" cy="53" r="1.6" fill="#1a1408"/>
  <circle cx="61" cy="53" r="1.6" fill="#1a1408"/>

  <path d="M36 64 Q50 71 64 64 Q50 68 36 64 Z" fill="#2a1818"/>
  <polygon points="41,64.5 45,64.5 43,70" fill="#f4ecd0"/>
  <polygon points="49,65 53,65 51,70" fill="#f4ecd0"/>
  <polygon points="55,64.5 59,64.5 57,70" fill="#f4ecd0"/>
</svg>
